<svg xmlns="http://www.w3.org/2000/svg" viewBox="0 0 256 256" role="img" aria-label="D’MAESTROS logo">
  <defs>
    <linearGradient id="goldStroke" x1="0" y1="0" x2="1" y2="1">
      <stop offset="0" stop-color="#f1c24b"/>
      <stop offset="1" stop-color="#d8a332"/>
    </linearGradient>
    <filter id="softGlow" x="-20%" y="-20%" width="140%" height="140%">
      <feGaussianBlur in="SourceGraphic" stdDeviation="1.4" result="blur"/>
      <feColorMatrix
        in="blur"
        type="matrix"
        values="
          1 0 0 0 0
          0 1 0 0 0
          0 0 1 0 0
          0 0 0 .55 0"
        result="glow"
      />
      <feMerge>
        <feMergeNode in="glow"/>
        <feMergeNode in="SourceGraphic"/>
      </feMerge>
    </filter>
  </defs>

  <!-- Simple line-art trumpet mark (stylized) -->
  <g fill="none" stroke="url(#goldStroke)" stroke-width="6.5" stroke-linecap="round" stroke-linejoin="round" filter="url(#softGlow)">
    <!-- bell -->
    <path d="M208 72c-18 18-41 29-66 31" />
    <path d="M142 103c14 10 33 13 53 10" opacity=".9"/>
    <!-- body -->
    <path d="M54 144c36-42 80-65 134-72" />
    <path d="M56 176c40-44 86-69 142-78" opacity=".9"/>
    <!-- valves -->
    <path d="M118 104v34" />
    <path d="M136 100v36" />
    <path d="M154 96v36" />
    <path d="M110 118h52" opacity=".9"/>
    <!-- mouthpiece + leadpipe -->
    <path d="M40 162c8-8 13-14 18-22" />
    <path d="M28 176l18-18" opacity=".9"/>
    <!-- tuning slide hint -->
    <path d="M92 132c-6 10-10 20-12 28" opacity=".85"/>
  </g>
</svg>

