<svg xmlns="http://www.w3.org/2000/svg" viewBox="0 0 900 260" role="img" aria-label="D’MAESTROS logo">
  <defs>
    <linearGradient id="goldStroke" x1="0" y1="0" x2="1" y2="1">
      <stop offset="0" stop-color="#f1c24b"/>
      <stop offset="1" stop-color="#d8a332"/>
    </linearGradient>
    <linearGradient id="goldFill" x1="0" y1="0" x2="1" y2="0">
      <stop offset="0" stop-color="#f1c24b"/>
      <stop offset="1" stop-color="#d8a332"/>
    </linearGradient>
    <filter id="softGlow" x="-20%" y="-20%" width="140%" height="140%">
      <feGaussianBlur in="SourceGraphic" stdDeviation="2.0" result="blur"/>
      <feColorMatrix
        in="blur"
        type="matrix"
        values="
          1 0 0 0 0
          0 1 0 0 0
          0 0 1 0 0
          0 0 0 .55 0"
        result="glow"
      />
      <feMerge>
        <feMergeNode in="glow"/>
        <feMergeNode in="SourceGraphic"/>
      </feMerge>
    </filter>
  </defs>

  <!-- mark -->
  <g transform="translate(40 24)">
    <g fill="none" stroke="url(#goldStroke)" stroke-width="10" stroke-linecap="round" stroke-linejoin="round" filter="url(#softGlow)">
      <path d="M210 40c-26 26-60 42-98 45" />
      <path d="M112 85c21 15 48 19 78 15" opacity=".9"/>
      <path d="M8 140c56-66 124-102 206-114" />
      <path d="M12 188c62-68 134-106 220-124" opacity=".9"/>
      <path d="M110 60v54" />
      <path d="M140 54v60" />
      <path d="M170 48v60" />
      <path d="M96 84h110" opacity=".9"/>
      <path d="M-14 168c12-12 20-22 28-36" />
      <path d="M-32 190l28-28" opacity=".9"/>
      <path d="M64 106c-12 18-18 34-22 50" opacity=".85"/>
    </g>
  </g>

  <!-- wordmark -->
  <g filter="url(#softGlow)">
    <text
      x="360"
      y="172"
      fill="url(#goldFill)"
      font-size="96"
      font-weight="800"
      letter-spacing="6"
      font-family="ui-serif, Georgia, 'Times New Roman', Times, serif"
    >
      D’MAESTROS
    </text>
  </g>
</svg>

